<svg width="90" height="90" viewBox="0 0 90 90" fill="none" xmlns="http://www.w3.org/2000/svg">
<rect width="90" height="90" rx="45" fill="#FFBD0D"/>
<path d="M28.3333 43.6666L20 39L45 25L70 39V56H65.8333V41.3334L61.6667 43.6666V57.0226L61.2029 57.5728C57.3869 62.0998 51.5454 65 45 65C38.4545 65 32.6131 62.0998 28.7971 57.5728L28.3333 57.0226V43.6666ZM32.5 46V55.5834C35.5567 58.908 40.0232 61 45 61C49.9769 61 54.4433 58.908 57.5 55.5834V46L45 53L32.5 46ZM28.2693 39L45 48.3692L61.7306 39L45 29.6308L28.2693 39Z" fill="white"/>
</svg>
