<svg width="90" height="90" viewBox="0 0 90 90" fill="none" xmlns="http://www.w3.org/2000/svg">
<rect width="90" height="90" rx="45" fill="#FFBD0D"/>
<path d="M49.1654 29.2448C51.9699 29.2448 54.2435 26.9712 54.2435 24.1667H56.5872C56.5872 26.9712 58.8608 29.2448 61.6654 29.2448V31.5886C58.8608 31.5886 56.5872 33.8621 56.5872 36.6667H54.2435C54.2435 33.8621 51.9699 31.5886 49.1654 31.5886V29.2448ZM22.082 42.9167C28.9856 42.9167 34.582 37.3203 34.582 30.4167H38.7487C38.7487 37.3203 44.3452 42.9167 51.2487 42.9167V47.0834C44.3452 47.0834 38.7487 52.6798 38.7487 59.5834H34.582C34.582 52.6798 28.9856 47.0834 22.082 47.0834V42.9167ZM30.1571 45C32.8886 46.5159 35.1496 48.7767 36.6654 51.5084C38.1811 48.7767 40.4421 46.5159 43.1737 45C40.4421 43.4842 38.1811 41.2234 36.6654 38.4917C35.1496 41.2234 32.8886 43.4842 30.1571 45ZM55.9362 49.1667C55.9362 52.9061 52.9047 55.9375 49.1654 55.9375V59.0625C52.9047 59.0625 55.9362 62.094 55.9362 65.8334H59.0612C59.0612 62.094 62.0927 59.0625 65.832 59.0625V55.9375C62.0927 55.9375 59.0612 52.9061 59.0612 49.1667H55.9362Z" fill="white"/>
</svg>
