<svg width="90" height="90" viewBox="0 0 90 90" fill="none" xmlns="http://www.w3.org/2000/svg">
<rect width="90" height="90" rx="45" fill="#FFBD0D"/>
<path d="M38.7513 22.0833V26.25H51.2513V22.0833H55.418V26.25H63.7513C64.9019 26.25 65.8346 27.1827 65.8346 28.3333V61.6666C65.8346 62.8173 64.9019 63.75 63.7513 63.75H26.2513C25.1007 63.75 24.168 62.8173 24.168 61.6666V28.3333C24.168 27.1827 25.1007 26.25 26.2513 26.25H34.5846V22.0833H38.7513ZM61.668 42.9166H28.3346V59.5833H61.668V42.9166ZM36.668 47.0833V51.25H32.5013V47.0833H36.668ZM47.0846 47.0833V51.25H42.918V47.0833H47.0846ZM57.5013 47.0833V51.25H53.3346V47.0833H57.5013ZM34.5846 30.4166H28.3346V38.75H61.668V30.4166H55.418V34.5833H51.2513V30.4166H38.7513V34.5833H34.5846V30.4166Z" fill="white"/>
</svg>
